<?xml version="1.0" encoding="UTF-8"?>
<svg width="38px" height="38px" viewBox="0 0 38 38" version="1.1" xmlns="http://www.w3.org/2000/svg" xmlns:xlink="http://www.w3.org/1999/xlink">
    <!-- Generator: sketchtool 49.3 (51167) - http://www.bohemiancoding.com/sketch -->
    <title>7D14A7B5-1D2C-474E-9B60-27C143988615</title>
    <desc>Created with sketchtool.</desc>
    <defs></defs>
    <g id="Page-1" stroke="none" stroke-width="1" fill="none" fill-rule="evenodd">
        <g id="Votel-homepage-2" transform="translate(-1326.000000, -4749.000000)">
            <g id="footer" transform="translate(0.000000, 4395.000000)">
                <g id="reach-us" transform="translate(1106.000000, 194.000000)">
                    <g id="social-icons" transform="translate(0.000000, 160.000000)">
                        <g id="Twitter" transform="translate(220.000000, 0.000000)">
                            <path d="M0,19 C0,8.50658923 8.50658923,0 19,0 C29.4934108,0 38,8.50658923 38,19 C38,29.4934108 29.4934108,38 19,38 C8.50658923,38 0,29.4934108 0,19 Z" id="back" fill="#55ACEE"></path>
                            <path d="M18.9309521,15.043438 L18.9708224,15.7008809 L18.306317,15.6203777 C15.8875175,15.311782 13.7743905,14.2652403 11.980226,12.5075869 L11.1030789,11.6354689 L10.8771471,12.2794945 C10.3987032,13.7151351 10.7043757,15.2312788 11.7011337,16.2509861 C12.232738,16.8145086 12.1131271,16.8950118 11.1961097,16.5595817 C10.8771471,16.4522441 10.5980548,16.3717409 10.5714746,16.4119925 C10.4784439,16.5059129 10.7974064,17.7268783 11.0499185,18.2098975 C11.3954613,18.8807576 12.0998369,19.5382004 12.8706632,19.9272993 L13.5218784,20.2358949 L12.7510522,20.2493121 C12.0068062,20.2493121 11.980226,20.2627293 12.0599666,20.5444905 C12.3257688,21.4166086 13.3756872,22.3423955 14.5452167,22.7449116 L15.3692033,23.0266728 L14.6515375,23.4560232 C13.588329,24.0732145 12.3390589,24.4220617 11.0897888,24.4488961 C10.491734,24.4623133 10,24.5159821 10,24.5562337 C10,24.6904057 11.6213931,25.441769 12.5649907,25.7369474 C15.3957835,26.6090655 18.7581807,26.2333839 21.2833011,24.7440746 C23.0774655,23.6841156 24.87163,21.577615 25.7089068,19.5382004 C26.1607704,18.4514071 26.6126341,16.4656613 26.6126341,15.51304 C26.6126341,14.8958488 26.6525044,14.8153456 27.3967504,14.0773995 C27.8353239,13.6480491 28.2473173,13.178447 28.3270579,13.044275 C28.459959,12.7893482 28.4466689,12.7893482 27.7688734,13.0174406 C26.6392143,13.4199566 26.479733,13.3662878 27.0379175,12.7625138 C27.4499108,12.3331633 27.9416448,11.5549657 27.9416448,11.3268732 C27.9416448,11.2866216 27.7422932,11.3537076 27.5163614,11.4744624 C27.2771394,11.6086345 26.7455351,11.8098925 26.3468319,11.9306473 L25.6291661,12.1587397 L24.9779509,11.7159721 C24.619118,11.4744624 24.1140939,11.2061184 23.8482918,11.1256152 C23.1704963,10.9377744 22.1338679,10.9646088 21.522523,11.179284 C19.8612596,11.7830581 18.8113411,13.3394534 18.9309521,15.043438 Z" id="Shape" fill="#FFFFFF"></path>
                        </g>
                    </g>
                </g>
            </g>
        </g>
    </g>
</svg>